<svg width="122" height="121" viewBox="0 0 122 121" fill="none" xmlns="http://www.w3.org/2000/svg">
<path d="M37.3672 70.5833L14.0495 100.833H107.951L77.7005 60.5L54.3828 90.75L37.3672 70.5833ZM121.5 107.451C121.5 111.022 120.135 114.173 117.404 116.904C114.673 119.635 111.522 121 107.951 121H14.0495C10.4783 121 7.32726 119.635 4.59635 116.904C1.86545 114.173 0.5 111.022 0.5 107.451V13.5495C0.5 9.9783 1.86545 6.82726 4.59635 4.09635C7.32726 1.36545 10.4783 0 14.0495 0H107.951C111.522 0 114.673 1.36545 117.404 4.09635C120.135 6.82726 121.5 9.9783 121.5 13.5495V107.451Z" fill="#CCCCCC"/>
</svg>
